<?xml version="1.0" standalone="no"?>
<!DOCTYPE svg PUBLIC "-//W3C//DTD SVG 20010904//EN"
 "http://www.w3.org/TR/2001/REC-SVG-20010904/DTD/svg10.dtd">
<svg version="1.0" xmlns="http://www.w3.org/2000/svg"
 width="1205.000000pt" height="1205.000000pt" viewBox="0 0 1205.000000 1205.000000"
 preserveAspectRatio="xMidYMid meet">
<metadata>
Created by potrace 1.11, written by Peter Selinger 2001-2013
</metadata>
<g transform="translate(0.000000,1205.000000) scale(0.100000,-0.100000)"
fill="#000000" stroke="none">
<path d="M0 6025 l0 -6025 6025 0 6025 0 0 6025 0 6025 -6025 0 -6025 0 0
-6025z m8640 65 l0 -4500 -382 2 -382 3 -90 202 c-50 112 -93 203 -97 203 -4
0 -43 -24 -86 -54 -312 -214 -787 -389 -1238 -457 -251 -38 -650 -35 -980 7
-461 59 -835 190 -1127 394 -119 83 -324 288 -410 410 -183 258 -295 544 -351
894 l-22 141 0 1440 c0 1605 -3 1526 70 1810 146 570 523 990 1095 1220 419
169 926 244 1559 232 467 -9 786 -59 1171 -183 76 -24 140 -44 144 -44 3 0 6
626 6 1390 l0 1390 560 0 560 0 0 -4500z"/>
<path d="M5910 7169 c-468 -34 -815 -153 -1028 -354 -133 -125 -210 -255 -255
-432 l-22 -88 0 -1500 0 -1500 28 -100 c87 -317 279 -536 611 -695 209 -100
383 -139 656 -147 577 -17 1127 98 1528 319 l92 51 0 2098 0 2097 -107 45
c-410 172 -948 246 -1503 206z"/>
</g>
</svg>
